<svg width="24" height="24" viewBox="0 0 24 24" fill="none" xmlns="http://www.w3.org/2000/svg">
<g id="Group 63">
<circle id="Ellipse 8" cx="12" cy="12" r="12" fill="#46B1DE"/>
<path id="+" d="M11.5962 15C11.5 15 11.4519 14.9467 11.4519 14.84V12.568H9.14423C9.04808 12.568 9 12.5147 9 12.408V11.592C9 11.4853 9.04808 11.432 9.14423 11.432H11.4519V9.16C11.4519 9.05333 11.5 9 11.5962 9H12.4038C12.5 9 12.5481 9.05333 12.5481 9.16V11.432H14.8558C14.9519 11.432 15 11.4853 15 11.592V12.408C15 12.5147 14.9519 12.568 14.8558 12.568H12.5481V14.84C12.5481 14.9467 12.5 15 12.4038 15H11.5962Z" fill="white"/>
</g>
</svg>
