<svg width="53" height="56" viewBox="0 0 53 56" fill="none" xmlns="http://www.w3.org/2000/svg">
<g id="Zub_vector 1" clip-path="url(#clip0_139_168)">
<g id="Group">
<path id="Vector" d="M28.5678 52.1145C28.6339 52.7457 28.6734 53.5648 28.8159 54.3645C28.9882 55.3321 29.5272 55.4177 30.154 54.7695C30.7466 54.1567 31.299 53.4958 31.8238 52.8186C37.0724 46.0386 40.5829 38.2329 43.8547 30.3303C45.6701 25.9452 46.3599 26.6197 41.5346 24.5559C34.4638 21.5321 27.0531 21.2239 19.5576 22.2842C15.5694 22.8478 11.7542 23.9993 8.22701 26.0874C7.3655 26.597 7.02045 27.0903 7.43676 28.1559C8.76978 31.5681 9.89321 35.0735 11.3325 38.4348C12.5695 41.324 14.1038 44.079 15.5713 46.857C15.8031 47.2966 16.3747 47.5425 16.7891 47.8782C17.0912 47.4469 17.484 47.0565 17.6798 46.5788C18.8581 43.7076 19.9341 40.7901 21.1689 37.9455C21.6237 36.8985 22.284 35.8646 23.0813 35.0759C25.4857 32.6979 28.024 33.4287 28.7729 36.8013C29.1985 38.7172 29.2842 40.7591 29.2296 42.735C29.1452 45.8021 28.8107 48.8615 28.5678 52.1145ZM2.25745 28.5273C3.18668 27.1873 4.03053 25.7696 5.07692 24.5369C5.72049 23.7791 5.84599 23.1152 5.62901 22.1992C4.62049 17.9393 4.31396 13.6072 4.55951 9.23567C4.84646 4.12805 8.31303 1.64652 13.0439 3.17241C14.3118 3.58111 15.5678 4.07808 16.758 4.68564C19.3919 6.03066 22.144 6.60724 25.0694 6.44403C25.5191 6.41872 25.9858 6.72816 26.4445 6.88238C26.1363 7.29574 25.9049 7.93828 25.5063 8.08217C23.7492 8.71704 21.9527 9.24266 20.152 9.73397C19.4436 9.9275 18.6701 9.86154 17.9572 10.0434C17.5142 10.1563 17.1287 10.5127 16.7175 10.7599C17.1136 10.9714 17.5177 11.3788 17.9055 11.3625C19.9649 11.2748 22.032 11.1749 24.0747 10.9031C27.3185 10.4711 30.0263 8.85994 32.3726 6.52963C33.5131 5.39713 34.6898 4.30092 35.8938 3.24203C39.0121 0.50002 43.4233 0.940034 46.0447 4.18168C48.5108 7.23146 48.7464 10.8069 48.2566 14.4958C47.9411 16.8721 47.4253 19.2274 46.869 21.5584C46.6196 22.6023 46.6912 23.2781 47.4599 24.1198C48.6828 25.4582 49.6567 27.0404 50.7368 28.5196C39.6123 15.0048 12.6276 15.5584 2.25745 28.5273Z" fill="#46B1DE"/>
</g>
</g>
<defs>
<clipPath id="clip0_139_168">
<rect width="53" height="55" fill="white" transform="translate(0 0.5)"/>
</clipPath>
</defs>
</svg>
